<svg width="234" height="255" viewBox="0 0 234 255" fill="none" xmlns="http://www.w3.org/2000/svg">
<g filter="url(#filter0_d_116_1650)">
<path d="M96.5642 0H99.289V1.35L92.0229 4.95L87.4817 7.65L83.8486 10.35L78.8532 14.4L74.3119 20.25L70.2248 26.55L66.1376 35.55L63.867 43.65L62.9587 49.05L62.5046 57.6L63.4128 66.6L65.2294 74.25L68.8624 83.25L72.0413 87.75L75.2202 91.35H76.1284L77.945 83.7L80.6697 76.05L84.7569 68.4L88.3899 63.45L92.4771 58.5L96.5642 54.9L99.7431 52.2L97.4725 49.95L92.0229 45.9L86.1193 41.4V40.05L87.9358 39.6L97.4725 40.5H109.734L123.358 37.8L126.537 37.35H135.165L139.706 40.05L140.615 40.95V42.3L136.982 43.2L125.628 45L125.174 45.9L134.257 44.1L139.252 43.2H146.064L152.422 44.1L157.872 45.9L158.78 46.8V48.15L154.239 49.95L146.518 54L141.069 57.6L136.528 62.1L134.257 65.7L132.44 71.1V80.1L133.803 84.6L136.982 89.55L141.069 92.25L145.61 93.6H151.968L157.417 91.8L162.413 86.85L166.5 79.65L169.225 73.35L171.041 65.7L171.495 62.55V50.85L170.587 43.65L168.317 35.1L165.592 28.8L161.959 22.5L157.872 17.1L153.33 12.15L148.335 8.1L141.523 4.05L135.165 0.9V0L138.798 0.45L147.881 3.15L157.417 6.75L164.229 10.35L170.133 14.4L176.037 19.35L179.67 22.95L184.665 29.7L189.661 39.15L191.931 45.9L193.294 54L194.202 66.6L196.018 58.05L196.472 54.45V43.65L194.656 32.4L191.931 22.95V21.6L194.656 25.65L200.105 36L204.647 46.8L207.372 55.35L209.642 65.25L210.55 72.45L211.005 79.2V84.6L210.096 94.05L207.826 103.5L205.101 110.25L201.014 119.25L196.927 127.8H197.381L202.83 122.4L206.009 118.35L209.642 113.4L213.729 106.2L215.546 103.05H216V106.65L211.459 119.7L207.826 127.8L203.739 135.45L199.197 142.2L194.656 148.05L191.477 151.2L188.298 154.8L184.665 157.95L178.761 162.45L172.858 166.05L162.867 171L131.986 183.6L120.633 188.55L118.817 189H114.275L101.56 183.6L90.6606 179.1L80.6697 175.05L69.3165 170.1L59.3257 164.7L52.9679 160.2L47.0642 155.25L42.0688 150.75L37.9817 145.8L33.4404 139.95L27.9908 130.5L22.0872 117L18 107.1V103.05H18.9083L23.4495 111.6L27.9908 117.9L32.078 122.4L38.4358 128.7L34.8028 122.4L29.8073 112.05L25.7202 99.9L24.3578 93.6L23.4495 85.5V74.25L24.8119 64.8L27.5367 54L31.6239 41.85L35.711 32.4L39.344 25.2L41.1606 22.5H42.0688L41.6147 27L37.9817 45V56.25L39.344 63.45V64.8H40.2523V58.5L41.1606 51.3L42.9771 44.1L46.156 36L49.3349 30.15L53.8761 23.85L58.4174 18.9L62.9587 15.3L67.9541 11.7L74.7661 8.1L82.4862 4.95L89.7523 2.25L96.5642 0Z" fill="white"/>
</g>
<path d="M147.051 229H150.321L151.83 230.006L155.099 233.024L157.111 234.784L161.386 239.059L164.152 241.323L168.679 245.849L169.685 246.604L169.936 230.006L170.691 229.251L171.445 229H174.463L175.72 230.257V253.645L175.217 254.148H169.685L166.667 251.382L164.655 249.622L161.134 246.101L159.123 244.34L155.35 240.82L151.327 237.047L150.824 236.796V253.394L150.069 254.148H145.794L145.04 253.394L144.788 252.639V237.047L145.04 229.754L145.543 229.251L147.051 229Z" fill="#FFFFFE"/>
<path d="M180.499 229H184.02L185.78 229.754L189.553 233.275L193.325 236.544L194.582 237.55L195.588 237.299L196.846 236.042L199.612 233.527L201.875 231.766L203.887 229.754L204.641 229.251L206.15 229H210.174L210.929 229.503V231.012L208.414 233.527L205.899 235.539L203.384 238.053L200.618 240.317L199.36 241.826L202.127 244.592L204.893 246.855L208.162 249.873L210.174 251.633L210.929 252.388V253.897L210.677 254.148H204.893L203.384 253.142L201.624 251.382L198.857 249.119L195.085 245.598L193.073 247.107L190.558 249.37L187.792 251.885L185.277 253.897L185.026 254.148H179.242L178.487 253.394L178.99 252.136L182.26 249.119L185.78 246.101L188.044 243.837L190.307 242.077L189.804 241.071L185.78 237.299L182.008 234.03L178.99 231.263L178.487 230.006L179.242 229.251L180.499 229Z" fill="#FFFFFE"/>
<path d="M78.6495 229H85.691L102.037 229.251L104.301 230.006L106.061 231.766L106.816 233.778V243.586L105.81 245.598L104.301 246.855L102.289 247.61L100.528 247.861V248.364L104.804 252.388L106.313 254.148H97.7622L95.4988 251.885L93.487 250.125L86.194 242.832V242.58L100.026 242.329L100.78 241.826V235.287L100.528 234.784L77.1406 234.533V230.509L77.8951 229.251L78.6495 229Z" fill="#FFFFFE"/>
<path d="M65.8234 229H68.8412L70.3501 229.503L71.859 231.515L75.6312 237.299L79.1519 242.832L82.1697 247.358L85.1875 252.136L85.439 253.897L84.936 254.148H79.6549L77.8945 251.633L75.8827 248.616L72.3619 243.083L68.3382 237.047L67.3323 236.042L65.0689 240.065L63.0571 242.832L61.2967 245.598L59.7878 248.113L58.0274 250.627L56.2671 253.394L55.5126 254.148H49.98L49.7285 252.639L51.7404 249.37L56.2671 242.58L58.7819 238.556L61.2967 234.784L63.56 231.263L65.3204 229.251L65.8234 229Z" fill="#FFFFFE"/>
<path d="M23.3228 238.556H50.4829L51.2373 239.059L51.4888 239.814V242.832L50.7343 243.838L30.3643 244.089L29.1069 244.843L28.8554 253.645L28.1009 254.4H24.5802L23.0713 253.645V238.808L23.3228 238.556Z" fill="#FFFFFE"/>
<path d="M113.604 229H138.501L140.01 229.503L140.261 229.754V234.03L139.758 234.533H112.095L111.341 233.527V230.257L112.095 229.251L113.604 229Z" fill="#FFFFFE"/>
<path d="M27.095 229H50.4829L51.7403 229.754V234.03L50.9858 234.533H23.0713V229.754L23.8257 229.251L27.095 229Z" fill="#FFFFFE"/>
<path d="M112.347 248.867H139.507L140.261 249.119L140.513 249.873V253.645L140.01 254.148H112.095L111.341 252.891V250.376L111.844 249.119L112.347 248.867Z" fill="#FFFFFE"/>
<path d="M112.598 239.059H139.255L139.758 239.311V243.837L139.004 244.34H112.095L111.341 243.334V240.317L112.598 239.059Z" fill="#FFFFFE"/>
<defs>
<filter id="filter0_d_116_1650" x="0" y="0" width="234" height="226" filterUnits="userSpaceOnUse" color-interpolation-filters="sRGB">
<feFlood flood-opacity="0" result="BackgroundImageFix"/>
<feColorMatrix in="SourceAlpha" type="matrix" values="0 0 0 0 0 0 0 0 0 0 0 0 0 0 0 0 0 0 127 0" result="hardAlpha"/>
<feOffset dy="19"/>
<feGaussianBlur stdDeviation="9"/>
<feComposite in2="hardAlpha" operator="out"/>
<feColorMatrix type="matrix" values="0 0 0 0 0.827451 0 0 0 0 0 0 0 0 0 0.172549 0 0 0 0.1 0"/>
<feBlend mode="normal" in2="BackgroundImageFix" result="effect1_dropShadow_116_1650"/>
<feBlend mode="normal" in="SourceGraphic" in2="effect1_dropShadow_116_1650" result="shape"/>
</filter>
</defs>
</svg>
