<svg width="41" height="40" viewBox="0 0 41 40" fill="none" xmlns="http://www.w3.org/2000/svg">
<path d="M16.2683 0L16.8326 0V0.285714L15.328 1.04762L14.3876 1.61905L13.6353 2.19048L12.6009 3.04762L11.6606 4.28571L10.8142 5.61905L9.96789 7.52381L9.49771 9.2381L9.30963 10.381L9.2156 12.1905L9.40367 14.0952L9.77982 15.7143L10.5321 17.619L11.1904 18.5714L11.8486 19.3333H12.0367L12.4128 17.7143L12.9771 16.0952L13.8234 14.4762L14.5757 13.4286L15.422 12.381L16.2683 11.619L16.9266 11.0476L16.4564 10.5714L15.328 9.71429L14.1055 8.7619V8.47619L14.4817 8.38095L16.4564 8.57143H18.9954L21.8165 8L22.4748 7.90476L24.2615 7.90476L25.2018 8.47619L25.3899 8.66667V8.95238L24.6376 9.14286L22.2867 9.52381L22.1927 9.71429L24.0734 9.33333L25.1078 9.14286H26.5184L27.8349 9.33333L28.9633 9.71429L29.1514 9.90476V10.1905L28.211 10.5714L26.6124 11.4286L25.4839 12.1905L24.5436 13.1429L24.0734 13.9048L23.6972 15.0476V16.9524L23.9794 17.9048L24.6376 18.9524L25.4839 19.5238L26.4243 19.8095H27.7408L28.8693 19.4286L29.9037 18.381L30.75 16.8571L31.3142 15.5238L31.6904 13.9048L31.7844 13.2381V10.7619L31.5963 9.2381L31.1261 7.42857L30.5619 6.09524L29.8096 4.7619L28.9633 3.61905L28.0229 2.57143L26.9885 1.71429L25.578 0.857143L24.2615 0.190476V0L25.0138 0.0952381L26.8945 0.666667L28.8693 1.42857L30.2798 2.19048L31.5023 3.04762L32.7248 4.09524L33.4771 4.85714L34.5115 6.28571L35.5459 8.28571L36.0161 9.71429L36.2982 11.4286L36.4862 14.0952L36.8624 12.2857L36.9564 11.5238V9.2381L36.5803 6.85714L36.0161 4.85714V4.57143L36.5803 5.42857L37.7087 7.61905L38.6491 9.90476L39.2133 11.7143L39.6835 13.8095L39.8716 15.3333L39.9656 16.7619V17.9048L39.7775 19.9048L39.3073 21.9048L38.7431 23.3333L37.8968 25.2381L37.0505 27.0476H37.1445L38.2729 25.9048L38.9312 25.0476L39.6835 24L40.5298 22.4762L40.906 21.8095H41V22.5714L40.0596 25.3333L39.3073 27.0476L38.461 28.6667L37.5206 30.0952L36.5803 31.3333L35.922 32L35.2638 32.7619L34.5115 33.4286L33.289 34.3809L32.0665 35.1429L29.9977 36.1905L23.6032 38.8571L21.2523 39.9048L20.8761 40H19.9358L17.3028 38.8571L15.0459 37.9048L12.9771 37.0476L10.6261 36L8.55734 34.8571L7.24083 33.9048L6.01835 32.8571L4.98395 31.9048L4.13761 30.8571L3.19725 29.619L2.06881 27.619L0.84633 24.7619L0 22.6667L0 21.8095H0.188073L1.12844 23.619L2.06881 24.9524L2.91514 25.9048L4.23165 27.2381L3.47936 25.9048L2.44495 23.7143L1.59862 21.1429L1.31651 19.8095L1.12844 18.0952L1.12844 15.7143L1.41055 13.7143L1.97477 11.4286L2.8211 8.85714L3.66743 6.85714L4.41972 5.33333L4.79587 4.7619H4.98395L4.88991 5.71429L4.13761 9.52381V11.9048L4.41972 13.4286V13.7143H4.6078V12.381L4.79587 10.8571L5.17202 9.33333L5.83028 7.61905L6.48853 6.38095L7.4289 5.04762L8.36927 4L9.30963 3.2381L10.344 2.47619L11.7546 1.71429L13.3532 1.04762L14.8578 0.47619L16.2683 0Z" fill="white"/>
</svg>
