<svg width="98" height="14" viewBox="0 0 98 14" fill="none" xmlns="http://www.w3.org/2000/svg">
<path d="M64.4311 0.400055H66.1301L66.9142 0.922822L68.6132 2.49112L69.6588 3.40596L71.8805 5.62772L73.3181 6.80395L75.6706 9.1564L76.1934 9.54847L76.324 0.922822L76.7161 0.530747L77.1082 0.400055H78.6765L79.33 1.05351V13.2078L79.0686 13.4692H76.1934L74.6251 12.0316L73.5795 11.1168L71.7498 9.28709L70.7043 8.37225L68.7439 6.54256L66.6529 4.58219L66.3915 4.4515V13.0771L65.9994 13.4692H63.7776L63.3856 13.0771L63.2549 12.6851V4.58219L63.3856 0.79213L63.647 0.530747L64.4311 0.400055Z" fill="white"/>
<path d="M81.8131 0.400055H83.6428L84.5576 0.79213L86.518 2.62181L88.4784 4.32081L89.1318 4.84357L89.6546 4.71288L90.3081 4.05942L91.7457 2.75251L92.9219 1.83766L93.9674 0.79213L94.3595 0.530747L95.1437 0.400055H97.2347L97.6268 0.661438V1.44559L96.3199 2.75251L95.013 3.79804L93.7061 5.10496L92.2684 6.28118L91.615 7.06533L93.0526 8.50294L94.4902 9.67916L96.1892 11.2475L97.2347 12.1623L97.6268 12.5544V13.3385L97.4961 13.4692H94.4902L93.7061 12.9465L92.7912 12.0316L91.3536 10.8554L89.3932 9.02571L88.3477 9.80986L87.0408 10.9861L85.6032 12.293L84.2963 13.3385L84.1656 13.4692H81.1597L80.7676 13.0771L81.029 12.4237L82.728 10.8554L84.5576 9.28709L85.7339 8.11086L86.9101 7.19602L86.6487 6.67326L84.5576 4.71288L82.5973 3.01389L81.029 1.57628L80.7676 0.922822L81.1597 0.530747L81.8131 0.400055Z" fill="white"/>
<path d="M28.8828 0.400055H32.5422L41.0371 0.530747L42.2133 0.922822L43.1282 1.83766L43.5203 2.8832V7.98017L42.9975 9.02571L42.2133 9.67916L41.1678 10.0712L40.253 10.2019V10.4633L42.4747 12.5544L43.2589 13.4692H38.8154L37.6391 12.293L36.5936 11.3782L32.8035 7.5881V7.45741L39.9916 7.32671L40.3837 7.06533V3.66735L40.253 3.40596L28.0986 3.27527V1.1842L28.4907 0.530747L28.8828 0.400055Z" fill="white"/>
<path d="M22.2178 0.400055H23.7861L24.5702 0.661438L25.3544 1.70697L27.3148 4.71288L29.1444 7.5881L30.7127 9.94055L32.281 12.4237L32.4117 13.3385L32.1504 13.4692H29.4058L28.491 12.1623L27.4454 10.594L25.6158 7.71879L23.5247 4.58219L23.0019 4.05942L21.8257 6.15049L20.7802 7.5881L19.8653 9.02571L19.0812 10.3326L18.1663 11.6395L17.2515 13.0771L16.8594 13.4692H13.9842L13.8535 12.6851L14.899 10.9861L17.2515 7.45741L18.5584 5.36634L19.8653 3.40596L21.0416 1.57628L21.9564 0.530747L22.2178 0.400055Z" fill="white"/>
<path d="M0.130692 5.36636H14.2454L14.6375 5.62775L14.7682 6.01982V7.58812L14.3761 8.11089L3.79006 8.24158L3.1366 8.63366L3.00591 13.2079L2.61383 13.5999H0.78415L0 13.2079V5.49706L0.130692 5.36636Z" fill="white"/>
<path d="M47.0493 0.400055H59.9877L60.7719 0.661438L60.9026 0.79213V3.01389L60.6412 3.27527H46.2651L45.873 2.7525V1.05351L46.2651 0.530747L47.0493 0.400055Z" fill="white"/>
<path d="M2.09107 0.400055H14.2454L14.8989 0.79213V3.01389L14.5068 3.27527H0V0.79213L0.392075 0.530747L2.09107 0.400055Z" fill="white"/>
<path d="M46.3958 10.7247H60.5105L60.9026 10.8554L61.0333 11.2475V13.2078L60.7719 13.4692H46.2651L45.873 12.8158V11.5089L46.1344 10.8554L46.3958 10.7247Z" fill="white"/>
<path d="M46.5265 5.62769H60.3798L60.6412 5.75838V8.11083L60.2491 8.37221H46.2651L45.873 7.84944V6.28114L46.5265 5.62769Z" fill="white"/>
</svg>
